<mxfile host="app.diagrams.net" modified="2023-06-16T17:39:35.164Z" agent="Mozilla/5.0 (Windows NT 10.0; Win64; x64) AppleWebKit/537.36 (KHTML, like Gecko) Chrome/114.0.0.0 Safari/537.36 Edg/114.0.1823.43" etag="TCAtdC2xkfQ36_XP1p87" version="21.4.0" type="device">
  <diagram id="C5RBs43oDa-KdzZeNtuy" name="Page-1">
    <mxGraphModel dx="794" dy="468" grid="1" gridSize="10" guides="1" tooltips="1" connect="1" arrows="1" fold="1" page="1" pageScale="1" pageWidth="827" pageHeight="1169" math="0" shadow="0">
      <root>
        <mxCell id="WIyWlLk6GJQsqaUBKTNV-0" />
        <mxCell id="WIyWlLk6GJQsqaUBKTNV-1" parent="WIyWlLk6GJQsqaUBKTNV-0" />
        <mxCell id="1kGT8INpDkxvPCDQ5Fws-0" value="" style="fontStyle=0;verticalAlign=top;align=center;spacingTop=-2;fillColor=#E6F0E2;rounded=0;whiteSpace=wrap;html=1;strokeColor=#E6F01A;strokeWidth=1;dashed=0;container=1;collapsible=0;expand=0;recursiveResize=0;" parent="WIyWlLk6GJQsqaUBKTNV-1" vertex="1">
          <mxGeometry x="16" y="371" width="270" height="340" as="geometry" />
        </mxCell>
        <mxCell id="JozISCr9Q73sYwBWQE6b-28" value="&lt;font color=&quot;#4378bb&quot; style=&quot;font-size: 15px;&quot;&gt;&lt;span style=&quot;font-size: 15px;&quot;&gt;IBM Cloud&lt;/span&gt;&lt;/font&gt;" style="text;html=1;strokeColor=none;fillColor=none;align=center;verticalAlign=middle;whiteSpace=wrap;rounded=0;fontColor=#7EA6E0;fontSize=15;fontStyle=1" parent="1kGT8INpDkxvPCDQ5Fws-0" vertex="1">
          <mxGeometry x="9" y="18" width="102" height="20" as="geometry" />
        </mxCell>
        <mxCell id="JozISCr9Q73sYwBWQE6b-31" value="" style="fontStyle=0;verticalAlign=top;align=center;spacingTop=-2;fillColor=#c6dbec;rounded=0;whiteSpace=wrap;html=1;strokeColor=#6b5be6;strokeWidth=1;dashed=0;container=1;collapsible=0;expand=0;recursiveResize=0;" parent="WIyWlLk6GJQsqaUBKTNV-1" vertex="1">
          <mxGeometry x="41" y="440" width="220" height="210" as="geometry" />
        </mxCell>
        <mxCell id="JozISCr9Q73sYwBWQE6b-32" value="&lt;font size=&quot;1&quot; color=&quot;#4378bb&quot;&gt;&lt;b style=&quot;font-size: 12px;&quot;&gt;Power VSI POD&lt;/b&gt;&lt;/font&gt;" style="text;html=1;strokeColor=none;fillColor=none;align=center;verticalAlign=middle;whiteSpace=wrap;rounded=0;fontColor=#7EA6E0;" parent="JozISCr9Q73sYwBWQE6b-31" vertex="1">
          <mxGeometry y="5" width="140" height="20" as="geometry" />
        </mxCell>
        <mxCell id="JozISCr9Q73sYwBWQE6b-36" value="&lt;b&gt;&lt;font style=&quot;font-size: 16px;&quot;&gt;1&lt;/font&gt;&lt;/b&gt;" style="ellipse;whiteSpace=wrap;html=1;aspect=fixed;strokeWidth=2;fontFamily=Tahoma;spacingBottom=4;spacingRight=2;strokeColor=#000000;" parent="JozISCr9Q73sYwBWQE6b-31" vertex="1">
          <mxGeometry x="190" y="147" width="32" height="32" as="geometry" />
        </mxCell>
        <mxCell id="JozISCr9Q73sYwBWQE6b-29" value="" style="fontStyle=0;verticalAlign=top;align=center;spacingTop=-2;fillColor=#E6F0E2;rounded=0;whiteSpace=wrap;html=1;strokeColor=#E6F01A;strokeWidth=1;dashed=0;container=1;collapsible=0;expand=0;recursiveResize=0;" parent="WIyWlLk6GJQsqaUBKTNV-1" vertex="1">
          <mxGeometry x="524" y="371" width="270" height="340" as="geometry" />
        </mxCell>
        <mxCell id="JozISCr9Q73sYwBWQE6b-12" style="edgeStyle=orthogonalEdgeStyle;rounded=0;orthogonalLoop=1;jettySize=auto;html=1;exitX=1.008;exitY=0.893;exitDx=0;exitDy=0;strokeWidth=2;exitPerimeter=0;" parent="WIyWlLk6GJQsqaUBKTNV-1" edge="1">
          <mxGeometry relative="1" as="geometry">
            <mxPoint x="348" y="586" as="targetPoint" />
            <mxPoint x="230.27999999999997" y="586.3000000000001" as="sourcePoint" />
            <Array as="points">
              <mxPoint x="290" y="586" />
            </Array>
          </mxGeometry>
        </mxCell>
        <mxCell id="JozISCr9Q73sYwBWQE6b-0" value="" style="rounded=1;whiteSpace=wrap;html=1;absoluteArcSize=1;arcSize=14;strokeWidth=2;fillColor=#FFF2CC;" parent="WIyWlLk6GJQsqaUBKTNV-1" vertex="1">
          <mxGeometry x="69" y="470" width="160" height="130" as="geometry" />
        </mxCell>
        <mxCell id="JozISCr9Q73sYwBWQE6b-1" value="" style="rounded=1;whiteSpace=wrap;html=1;absoluteArcSize=1;arcSize=14;strokeWidth=2;" parent="WIyWlLk6GJQsqaUBKTNV-1" vertex="1">
          <mxGeometry x="349" y="550" width="100" height="80" as="geometry" />
        </mxCell>
        <mxCell id="JozISCr9Q73sYwBWQE6b-4" value="" style="strokeWidth=2;html=1;shape=mxgraph.flowchart.direct_data;whiteSpace=wrap;rotation=-90;fillColor=#6392FF;" parent="WIyWlLk6GJQsqaUBKTNV-1" vertex="1">
          <mxGeometry x="382.5" y="686.5" width="35" height="60" as="geometry" />
        </mxCell>
        <mxCell id="JozISCr9Q73sYwBWQE6b-10" value="" style="image;aspect=fixed;perimeter=ellipsePerimeter;html=1;align=center;shadow=0;dashed=0;fontColor=#4277BB;labelBackgroundColor=default;fontSize=12;spacingTop=3;image=img/lib/ibm/vpc/Router.svg;" parent="WIyWlLk6GJQsqaUBKTNV-1" vertex="1">
          <mxGeometry x="369" y="560" width="60" height="60" as="geometry" />
        </mxCell>
        <mxCell id="JozISCr9Q73sYwBWQE6b-2" value="" style="strokeWidth=2;html=1;shape=mxgraph.flowchart.direct_data;whiteSpace=wrap;rotation=90;fillColor=#858585;" parent="WIyWlLk6GJQsqaUBKTNV-1" vertex="1">
          <mxGeometry x="686" y="405" width="20" height="60" as="geometry" />
        </mxCell>
        <mxCell id="JozISCr9Q73sYwBWQE6b-5" value="" style="strokeWidth=2;html=1;shape=mxgraph.flowchart.direct_data;whiteSpace=wrap;rotation=90;fillColor=#858585;" parent="WIyWlLk6GJQsqaUBKTNV-1" vertex="1">
          <mxGeometry x="686" y="465" width="20" height="60" as="geometry" />
        </mxCell>
        <mxCell id="JozISCr9Q73sYwBWQE6b-6" value="" style="strokeWidth=2;html=1;shape=mxgraph.flowchart.direct_data;whiteSpace=wrap;rotation=90;fillColor=#858585;" parent="WIyWlLk6GJQsqaUBKTNV-1" vertex="1">
          <mxGeometry x="686" y="528" width="20" height="60" as="geometry" />
        </mxCell>
        <mxCell id="JozISCr9Q73sYwBWQE6b-7" value="" style="strokeWidth=2;html=1;shape=mxgraph.flowchart.direct_data;whiteSpace=wrap;rotation=90;fillColor=#858585;" parent="WIyWlLk6GJQsqaUBKTNV-1" vertex="1">
          <mxGeometry x="686" y="598" width="20" height="60" as="geometry" />
        </mxCell>
        <mxCell id="JozISCr9Q73sYwBWQE6b-14" value="" style="endArrow=classic;html=1;rounded=0;entryX=0.5;entryY=1;entryDx=0;entryDy=0;entryPerimeter=0;strokeWidth=2;" parent="WIyWlLk6GJQsqaUBKTNV-1" target="JozISCr9Q73sYwBWQE6b-2" edge="1">
          <mxGeometry width="50" height="50" relative="1" as="geometry">
            <mxPoint x="450" y="590" as="sourcePoint" />
            <mxPoint x="500" y="500" as="targetPoint" />
            <Array as="points" />
          </mxGeometry>
        </mxCell>
        <mxCell id="JozISCr9Q73sYwBWQE6b-15" value="" style="endArrow=classic;html=1;rounded=0;entryX=0.5;entryY=1;entryDx=0;entryDy=0;entryPerimeter=0;strokeWidth=2;" parent="WIyWlLk6GJQsqaUBKTNV-1" target="JozISCr9Q73sYwBWQE6b-5" edge="1">
          <mxGeometry width="50" height="50" relative="1" as="geometry">
            <mxPoint x="450" y="590" as="sourcePoint" />
            <mxPoint x="639" y="445" as="targetPoint" />
            <Array as="points" />
          </mxGeometry>
        </mxCell>
        <mxCell id="JozISCr9Q73sYwBWQE6b-16" value="" style="endArrow=classic;html=1;rounded=0;entryX=0.5;entryY=1;entryDx=0;entryDy=0;entryPerimeter=0;strokeWidth=2;exitX=1;exitY=0.5;exitDx=0;exitDy=0;" parent="WIyWlLk6GJQsqaUBKTNV-1" source="JozISCr9Q73sYwBWQE6b-1" target="JozISCr9Q73sYwBWQE6b-6" edge="1">
          <mxGeometry width="50" height="50" relative="1" as="geometry">
            <mxPoint x="450" y="580" as="sourcePoint" />
            <mxPoint x="649" y="455" as="targetPoint" />
            <Array as="points" />
          </mxGeometry>
        </mxCell>
        <mxCell id="JozISCr9Q73sYwBWQE6b-17" value="" style="endArrow=classic;html=1;rounded=0;entryX=0.5;entryY=1;entryDx=0;entryDy=0;entryPerimeter=0;strokeWidth=2;" parent="WIyWlLk6GJQsqaUBKTNV-1" target="JozISCr9Q73sYwBWQE6b-7" edge="1">
          <mxGeometry width="50" height="50" relative="1" as="geometry">
            <mxPoint x="450" y="590" as="sourcePoint" />
            <mxPoint x="639" y="568" as="targetPoint" />
            <Array as="points" />
          </mxGeometry>
        </mxCell>
        <mxCell id="JozISCr9Q73sYwBWQE6b-18" value="" style="endArrow=classic;html=1;rounded=0;strokeColor=#ff0000;strokeWidth=2;entryX=1.061;entryY=0.836;entryDx=0;entryDy=0;entryPerimeter=0;exitX=0.71;exitY=1.012;exitDx=0;exitDy=0;exitPerimeter=0;" parent="WIyWlLk6GJQsqaUBKTNV-1" source="JozISCr9Q73sYwBWQE6b-1" edge="1">
          <mxGeometry width="50" height="50" relative="1" as="geometry">
            <mxPoint x="420" y="632" as="sourcePoint" />
            <mxPoint x="420.15999999999997" y="698.865" as="targetPoint" />
            <Array as="points" />
          </mxGeometry>
        </mxCell>
        <mxCell id="JozISCr9Q73sYwBWQE6b-19" value="" style="endArrow=classic;html=1;rounded=0;exitX=1.005;exitY=0.153;exitDx=0;exitDy=0;exitPerimeter=0;strokeColor=#00ff00;strokeWidth=2;entryX=0.3;entryY=1.011;entryDx=0;entryDy=0;entryPerimeter=0;" parent="WIyWlLk6GJQsqaUBKTNV-1" source="JozISCr9Q73sYwBWQE6b-4" target="JozISCr9Q73sYwBWQE6b-1" edge="1">
          <mxGeometry width="50" height="50" relative="1" as="geometry">
            <mxPoint x="378" y="591" as="sourcePoint" />
            <mxPoint x="379" y="630" as="targetPoint" />
            <Array as="points" />
          </mxGeometry>
        </mxCell>
        <mxCell id="JozISCr9Q73sYwBWQE6b-20" value="text" parent="WIyWlLk6GJQsqaUBKTNV-0" />
        <mxCell id="JozISCr9Q73sYwBWQE6b-24" value="PPR 2" style="text;align=left;verticalAlign=top;fontColor=#4277BB;shadow=0;dashed=0;strokeColor=none;fillColor=none;labelBackgroundColor=none;fontStyle=1;fontSize=12;spacingLeft=5;whiteSpace=wrap;spacing=0;" parent="JozISCr9Q73sYwBWQE6b-20" vertex="1">
          <mxGeometry x="672" y="503" width="70" height="26" as="geometry" />
        </mxCell>
        <mxCell id="JozISCr9Q73sYwBWQE6b-25" value="PPR 3" style="text;align=left;verticalAlign=top;fontColor=#4277BB;shadow=0;dashed=0;strokeColor=none;fillColor=none;labelBackgroundColor=none;fontStyle=1;fontSize=12;spacingLeft=5;whiteSpace=wrap;spacing=0;" parent="JozISCr9Q73sYwBWQE6b-20" vertex="1">
          <mxGeometry x="672" y="566" width="70" height="26" as="geometry" />
        </mxCell>
        <mxCell id="JozISCr9Q73sYwBWQE6b-26" value="PPR 4" style="text;align=left;verticalAlign=top;fontColor=#4277BB;shadow=0;dashed=0;strokeColor=none;fillColor=none;labelBackgroundColor=none;fontStyle=1;fontSize=12;spacingLeft=5;whiteSpace=wrap;spacing=0;" parent="JozISCr9Q73sYwBWQE6b-20" vertex="1">
          <mxGeometry x="673" y="636" width="70" height="26" as="geometry" />
        </mxCell>
        <mxCell id="JozISCr9Q73sYwBWQE6b-27" value="&lt;font size=&quot;1&quot; color=&quot;#4378bb&quot;&gt;&lt;b style=&quot;font-size: 15px;&quot;&gt;Application Centric Infrastructure (ACI)&lt;/b&gt;&lt;/font&gt;" style="text;html=1;strokeColor=none;fillColor=none;align=center;verticalAlign=middle;whiteSpace=wrap;rounded=0;fontColor=#7EA6E0;" parent="JozISCr9Q73sYwBWQE6b-20" vertex="1">
          <mxGeometry x="99" y="490" width="102" height="100" as="geometry" />
        </mxCell>
        <mxCell id="JozISCr9Q73sYwBWQE6b-30" value="PPR 1" style="text;align=left;verticalAlign=top;fontColor=#4277BB;shadow=0;dashed=0;strokeColor=none;fillColor=none;labelBackgroundColor=none;fontStyle=1;fontSize=12;spacingLeft=5;whiteSpace=wrap;spacing=0;" parent="JozISCr9Q73sYwBWQE6b-20" vertex="1">
          <mxGeometry x="672" y="444" width="70" height="26" as="geometry" />
        </mxCell>
        <mxCell id="JozISCr9Q73sYwBWQE6b-34" value="&lt;span style=&quot;font-size: 15px;&quot;&gt;&lt;font style=&quot;font-size: 15px;&quot;&gt;Power Edge Router (PER)&lt;/font&gt;&lt;/span&gt;" style="text;html=1;strokeColor=none;fillColor=none;align=center;verticalAlign=middle;whiteSpace=wrap;rounded=0;fontSize=15;fontStyle=1" parent="JozISCr9Q73sYwBWQE6b-20" vertex="1">
          <mxGeometry x="324" y="514" width="150" height="30" as="geometry" />
        </mxCell>
        <mxCell id="JozISCr9Q73sYwBWQE6b-35" value="&lt;span style=&quot;font-size: 15px;&quot;&gt;&lt;font style=&quot;font-size: 15px;&quot;&gt;Network Address Translator (NAT)&lt;/font&gt;&lt;/span&gt;" style="text;html=1;strokeColor=none;fillColor=none;align=center;verticalAlign=middle;whiteSpace=wrap;rounded=0;fontSize=15;fontStyle=1" parent="JozISCr9Q73sYwBWQE6b-20" vertex="1">
          <mxGeometry x="291" y="736" width="226" height="30" as="geometry" />
        </mxCell>
        <mxCell id="JozISCr9Q73sYwBWQE6b-37" value="&lt;b&gt;&lt;font style=&quot;font-size: 16px;&quot;&gt;2&lt;/font&gt;&lt;/b&gt;" style="ellipse;whiteSpace=wrap;html=1;aspect=fixed;strokeWidth=2;fontFamily=Tahoma;spacingBottom=4;spacingRight=2;strokeColor=#000000;" parent="JozISCr9Q73sYwBWQE6b-20" vertex="1">
          <mxGeometry x="461" y="597" width="32" height="32" as="geometry" />
        </mxCell>
        <mxCell id="JozISCr9Q73sYwBWQE6b-38" value="&lt;b&gt;&lt;font style=&quot;font-size: 16px;&quot;&gt;3&lt;br&gt;&lt;/font&gt;&lt;/b&gt;" style="ellipse;whiteSpace=wrap;html=1;aspect=fixed;strokeWidth=2;fontFamily=Tahoma;spacingBottom=4;spacingRight=2;strokeColor=#000000;" parent="JozISCr9Q73sYwBWQE6b-20" vertex="1">
          <mxGeometry x="421" y="650" width="32" height="32" as="geometry" />
        </mxCell>
        <mxCell id="JozISCr9Q73sYwBWQE6b-39" value="&lt;b&gt;&lt;font style=&quot;font-size: 16px;&quot;&gt;4&lt;/font&gt;&lt;/b&gt;" style="ellipse;whiteSpace=wrap;html=1;aspect=fixed;strokeWidth=2;fontFamily=Tahoma;spacingBottom=4;spacingRight=2;strokeColor=#000000;" parent="JozISCr9Q73sYwBWQE6b-20" vertex="1">
          <mxGeometry x="346" y="650" width="32" height="32" as="geometry" />
        </mxCell>
        <mxCell id="JozISCr9Q73sYwBWQE6b-40" value="LEGEND" style="text;html=1;align=left;verticalAlign=middle;fontColor=#4277BB;shadow=0;dashed=0;strokeColor=none;fillColor=none;labelBackgroundColor=none;fontStyle=1;fontSize=14;spacingLeft=0;" parent="JozISCr9Q73sYwBWQE6b-20" vertex="1">
          <mxGeometry x="59" y="740" width="150" height="20" as="geometry" />
        </mxCell>
        <mxCell id="JozISCr9Q73sYwBWQE6b-41" value="" style="endArrow=classic;html=1;rounded=0;strokeColor=#ff0000;strokeWidth=2;" parent="JozISCr9Q73sYwBWQE6b-20" edge="1">
          <mxGeometry width="50" height="50" relative="1" as="geometry">
            <mxPoint x="60" y="795" as="sourcePoint" />
            <mxPoint x="120" y="795" as="targetPoint" />
            <Array as="points" />
          </mxGeometry>
        </mxCell>
        <mxCell id="JozISCr9Q73sYwBWQE6b-42" value="" style="endArrow=classic;html=1;rounded=0;entryX=0.305;entryY=1.012;entryDx=0;entryDy=0;entryPerimeter=0;strokeColor=#00ff00;strokeWidth=2;" parent="JozISCr9Q73sYwBWQE6b-20" edge="1">
          <mxGeometry width="50" height="50" relative="1" as="geometry">
            <mxPoint x="59" y="810" as="sourcePoint" />
            <mxPoint x="120" y="810" as="targetPoint" />
            <Array as="points" />
          </mxGeometry>
        </mxCell>
        <mxCell id="JozISCr9Q73sYwBWQE6b-43" style="edgeStyle=orthogonalEdgeStyle;rounded=0;orthogonalLoop=1;jettySize=auto;html=1;strokeWidth=2;" parent="JozISCr9Q73sYwBWQE6b-20" edge="1">
          <mxGeometry relative="1" as="geometry">
            <mxPoint x="120" y="780" as="targetPoint" />
            <mxPoint x="60" y="780" as="sourcePoint" />
          </mxGeometry>
        </mxCell>
        <mxCell id="JozISCr9Q73sYwBWQE6b-44" value="&lt;font style=&quot;font-size: 10px;&quot;&gt;100 Gig&lt;/font&gt;" style="text;html=1;strokeColor=none;fillColor=none;align=center;verticalAlign=middle;whiteSpace=wrap;rounded=0;fontSize=15;fontStyle=1" parent="JozISCr9Q73sYwBWQE6b-20" vertex="1">
          <mxGeometry x="120" y="773" width="44" height="10" as="geometry" />
        </mxCell>
        <mxCell id="JozISCr9Q73sYwBWQE6b-46" value="&lt;font style=&quot;font-size: 10px;&quot;&gt;10 Gig NAT Outside&lt;/font&gt;" style="text;html=1;strokeColor=none;fillColor=none;align=center;verticalAlign=middle;whiteSpace=wrap;rounded=0;fontSize=15;fontStyle=1" parent="JozISCr9Q73sYwBWQE6b-20" vertex="1">
          <mxGeometry x="120" y="788" width="100" height="10" as="geometry" />
        </mxCell>
        <mxCell id="JozISCr9Q73sYwBWQE6b-47" value="&lt;font style=&quot;font-size: 10px;&quot;&gt;10 Gig NAT Inside&lt;/font&gt;" style="text;html=1;strokeColor=none;fillColor=none;align=center;verticalAlign=middle;whiteSpace=wrap;rounded=0;fontSize=15;fontStyle=1" parent="JozISCr9Q73sYwBWQE6b-20" vertex="1">
          <mxGeometry x="123" y="803" width="87" height="10" as="geometry" />
        </mxCell>
        <mxCell id="1kGT8INpDkxvPCDQ5Fws-1" value="&lt;font color=&quot;#4378bb&quot; style=&quot;font-size: 15px;&quot;&gt;&lt;span style=&quot;font-size: 15px;&quot;&gt;IBM Cloud&lt;/span&gt;&lt;/font&gt;" style="text;html=1;strokeColor=none;fillColor=none;align=center;verticalAlign=middle;whiteSpace=wrap;rounded=0;fontColor=#7EA6E0;fontSize=15;fontStyle=1" parent="JozISCr9Q73sYwBWQE6b-20" vertex="1">
          <mxGeometry x="544" y="389" width="102" height="20" as="geometry" />
        </mxCell>
        <mxCell id="1kGT8INpDkxvPCDQ5Fws-2" value="&lt;font size=&quot;1&quot; color=&quot;#4378bb&quot;&gt;&lt;b style=&quot;font-size: 12px;&quot;&gt;POD&lt;/b&gt;&lt;/font&gt;" style="text;html=1;strokeColor=none;fillColor=none;align=center;verticalAlign=middle;whiteSpace=wrap;rounded=0;fontColor=#7EA6E0;" parent="JozISCr9Q73sYwBWQE6b-20" vertex="1">
          <mxGeometry x="52" y="816" width="40" height="20" as="geometry" />
        </mxCell>
        <mxCell id="1kGT8INpDkxvPCDQ5Fws-5" value="" style="endArrow=none;html=1;rounded=0;exitX=1.032;exitY=0.601;exitDx=0;exitDy=0;exitPerimeter=0;" parent="JozISCr9Q73sYwBWQE6b-20" source="1kGT8INpDkxvPCDQ5Fws-2" edge="1">
          <mxGeometry width="50" height="50" relative="1" as="geometry">
            <mxPoint x="103" y="828" as="sourcePoint" />
            <mxPoint x="120" y="828" as="targetPoint" />
          </mxGeometry>
        </mxCell>
        <mxCell id="1kGT8INpDkxvPCDQ5Fws-6" value="&lt;span style=&quot;font-size: 10px;&quot;&gt;A modular datacenter&lt;/span&gt;" style="text;html=1;strokeColor=none;fillColor=none;align=left;verticalAlign=middle;rounded=0;fontSize=15;fontStyle=1" parent="JozISCr9Q73sYwBWQE6b-20" vertex="1">
          <mxGeometry x="124" y="814" width="186" height="20" as="geometry" />
        </mxCell>
        <mxCell id="1kGT8INpDkxvPCDQ5Fws-7" value="&lt;font size=&quot;1&quot; color=&quot;#4378bb&quot;&gt;&lt;b style=&quot;font-size: 12px;&quot;&gt;PPR&lt;/b&gt;&lt;/font&gt;" style="text;html=1;strokeColor=none;fillColor=none;align=center;verticalAlign=middle;whiteSpace=wrap;rounded=0;fontColor=#7EA6E0;" parent="JozISCr9Q73sYwBWQE6b-20" vertex="1">
          <mxGeometry x="51" y="832" width="40" height="20" as="geometry" />
        </mxCell>
        <mxCell id="1kGT8INpDkxvPCDQ5Fws-9" value="" style="endArrow=none;html=1;rounded=0;exitX=1.066;exitY=0.502;exitDx=0;exitDy=0;exitPerimeter=0;" parent="JozISCr9Q73sYwBWQE6b-20" source="1kGT8INpDkxvPCDQ5Fws-7" edge="1">
          <mxGeometry width="50" height="50" relative="1" as="geometry">
            <mxPoint x="100" y="842" as="sourcePoint" />
            <mxPoint x="120" y="842" as="targetPoint" />
          </mxGeometry>
        </mxCell>
        <mxCell id="1kGT8INpDkxvPCDQ5Fws-10" value="" style="rounded=1;whiteSpace=wrap;html=1;absoluteArcSize=1;arcSize=14;strokeWidth=2;" parent="JozISCr9Q73sYwBWQE6b-20" vertex="1">
          <mxGeometry x="349" y="431" width="100" height="80" as="geometry" />
        </mxCell>
        <mxCell id="1kGT8INpDkxvPCDQ5Fws-11" value="" style="image;aspect=fixed;perimeter=ellipsePerimeter;html=1;align=center;shadow=0;dashed=0;fontColor=#4277BB;labelBackgroundColor=default;fontSize=12;spacingTop=3;image=img/lib/ibm/vpc/Router.svg;" parent="JozISCr9Q73sYwBWQE6b-20" vertex="1">
          <mxGeometry x="369" y="441" width="60" height="60" as="geometry" />
        </mxCell>
        <mxCell id="1kGT8INpDkxvPCDQ5Fws-12" value="" style="strokeWidth=2;html=1;shape=mxgraph.flowchart.direct_data;whiteSpace=wrap;rotation=-90;fillColor=#6392FF;" parent="JozISCr9Q73sYwBWQE6b-20" vertex="1">
          <mxGeometry x="381.5" y="327" width="35" height="60" as="geometry" />
        </mxCell>
        <mxCell id="1kGT8INpDkxvPCDQ5Fws-15" value="" style="endArrow=classic;html=1;rounded=0;strokeColor=#00ff00;strokeWidth=2;exitX=-0.005;exitY=0.179;exitDx=0;exitDy=0;exitPerimeter=0;" parent="JozISCr9Q73sYwBWQE6b-20" edge="1">
          <mxGeometry width="50" height="50" relative="1" as="geometry">
            <mxPoint x="381.7400000000001" y="374.67500000000007" as="sourcePoint" />
            <mxPoint x="382" y="430" as="targetPoint" />
            <Array as="points" />
          </mxGeometry>
        </mxCell>
        <mxCell id="1kGT8INpDkxvPCDQ5Fws-16" value="" style="endArrow=classic;html=1;rounded=0;strokeColor=#ff0000;strokeWidth=2;entryX=-0.003;entryY=0.85;entryDx=0;entryDy=0;entryPerimeter=0;" parent="JozISCr9Q73sYwBWQE6b-20" edge="1">
          <mxGeometry width="50" height="50" relative="1" as="geometry">
            <mxPoint x="416" y="430" as="sourcePoint" />
            <mxPoint x="416" y="374.605" as="targetPoint" />
            <Array as="points" />
          </mxGeometry>
        </mxCell>
        <mxCell id="1kGT8INpDkxvPCDQ5Fws-17" value="" style="endArrow=classic;html=1;rounded=0;entryX=0.5;entryY=1;entryDx=0;entryDy=0;entryPerimeter=0;strokeWidth=2;" parent="JozISCr9Q73sYwBWQE6b-20" target="JozISCr9Q73sYwBWQE6b-2" edge="1">
          <mxGeometry width="50" height="50" relative="1" as="geometry">
            <mxPoint x="450" y="470" as="sourcePoint" />
            <mxPoint x="667" y="316" as="targetPoint" />
            <Array as="points" />
          </mxGeometry>
        </mxCell>
        <mxCell id="1kGT8INpDkxvPCDQ5Fws-18" value="" style="endArrow=classic;html=1;rounded=0;entryX=0.5;entryY=1;entryDx=0;entryDy=0;entryPerimeter=0;strokeWidth=2;" parent="JozISCr9Q73sYwBWQE6b-20" target="JozISCr9Q73sYwBWQE6b-5" edge="1">
          <mxGeometry width="50" height="50" relative="1" as="geometry">
            <mxPoint x="450" y="471" as="sourcePoint" />
            <mxPoint x="667" y="376" as="targetPoint" />
            <Array as="points" />
          </mxGeometry>
        </mxCell>
        <mxCell id="1kGT8INpDkxvPCDQ5Fws-19" value="" style="endArrow=classic;html=1;rounded=0;entryX=0.5;entryY=1;entryDx=0;entryDy=0;entryPerimeter=0;strokeWidth=2;exitX=1;exitY=0.5;exitDx=0;exitDy=0;" parent="JozISCr9Q73sYwBWQE6b-20" target="JozISCr9Q73sYwBWQE6b-6" edge="1">
          <mxGeometry width="50" height="50" relative="1" as="geometry">
            <mxPoint x="450" y="471" as="sourcePoint" />
            <mxPoint x="667" y="439" as="targetPoint" />
            <Array as="points" />
          </mxGeometry>
        </mxCell>
        <mxCell id="1kGT8INpDkxvPCDQ5Fws-20" value="" style="endArrow=classic;html=1;rounded=0;strokeWidth=2;entryX=0.49;entryY=1.012;entryDx=0;entryDy=0;entryPerimeter=0;" parent="JozISCr9Q73sYwBWQE6b-20" target="JozISCr9Q73sYwBWQE6b-7" edge="1">
          <mxGeometry width="50" height="50" relative="1" as="geometry">
            <mxPoint x="450" y="471" as="sourcePoint" />
            <mxPoint x="660" y="630" as="targetPoint" />
            <Array as="points" />
          </mxGeometry>
        </mxCell>
        <mxCell id="1kGT8INpDkxvPCDQ5Fws-22" style="edgeStyle=orthogonalEdgeStyle;rounded=0;orthogonalLoop=1;jettySize=auto;html=1;strokeWidth=2;exitX=0.997;exitY=0.085;exitDx=0;exitDy=0;exitPerimeter=0;" parent="JozISCr9Q73sYwBWQE6b-20" source="JozISCr9Q73sYwBWQE6b-0" edge="1">
          <mxGeometry relative="1" as="geometry">
            <mxPoint x="349" y="480" as="targetPoint" />
            <mxPoint x="293" y="480" as="sourcePoint" />
            <Array as="points">
              <mxPoint x="229" y="480" />
            </Array>
          </mxGeometry>
        </mxCell>
        <mxCell id="1kGT8INpDkxvPCDQ5Fws-27" value="" style="endArrow=none;html=1;rounded=0;strokeWidth=2;strokeColor=#66FFFF;" parent="JozISCr9Q73sYwBWQE6b-20" edge="1">
          <mxGeometry width="50" height="50" relative="1" as="geometry">
            <mxPoint x="320" y="720" as="sourcePoint" />
            <mxPoint x="320" y="360" as="targetPoint" />
          </mxGeometry>
        </mxCell>
        <mxCell id="1kGT8INpDkxvPCDQ5Fws-28" value="" style="endArrow=classic;html=1;rounded=0;entryX=0.421;entryY=-0.038;entryDx=0;entryDy=0;entryPerimeter=0;strokeWidth=2;strokeColor=#66FFFF;" parent="JozISCr9Q73sYwBWQE6b-20" edge="1">
          <mxGeometry width="50" height="50" relative="1" as="geometry">
            <mxPoint x="320" y="360" as="sourcePoint" />
            <mxPoint x="367.72" y="359.76500000000004" as="targetPoint" />
          </mxGeometry>
        </mxCell>
        <mxCell id="1kGT8INpDkxvPCDQ5Fws-29" value="" style="endArrow=classic;html=1;rounded=0;entryX=0.421;entryY=-0.038;entryDx=0;entryDy=0;entryPerimeter=0;strokeWidth=2;strokeColor=#66FFFF;" parent="JozISCr9Q73sYwBWQE6b-20" edge="1">
          <mxGeometry width="50" height="50" relative="1" as="geometry">
            <mxPoint x="320" y="720" as="sourcePoint" />
            <mxPoint x="369" y="719.9950000000001" as="targetPoint" />
          </mxGeometry>
        </mxCell>
        <mxCell id="1kGT8INpDkxvPCDQ5Fws-30" value="&lt;font style=&quot;font-size: 10px;&quot;&gt;POD to POD router&lt;/font&gt;" style="text;html=1;strokeColor=none;fillColor=none;align=left;verticalAlign=middle;rounded=0;fontSize=15;fontStyle=1" parent="JozISCr9Q73sYwBWQE6b-20" vertex="1">
          <mxGeometry x="124" y="829" width="107" height="20" as="geometry" />
        </mxCell>
      </root>
    </mxGraphModel>
  </diagram>
</mxfile>
